<svg width="674" height="249" viewBox="0 0 674 249" fill="none" xmlns="http://www.w3.org/2000/svg">
<path d="M8.064 12.024L0 10.232V5.112H28.672V10.232L20.608 11.256L19.584 13.048L36.096 72.184L56.704 5.112H65.664L86.656 73.592L102.144 13.56L100.736 11.768L92.16 10.232V5.112H118.656V10.232L110.08 12.024L89.728 91H81.024L59.392 20.984L38.144 91H29.568L8.064 12.024ZM122.59 86.392L129.374 85.752L131.678 83.704V37.368H122.59V33.4L137.438 28.792H142.302V40.824C144.521 38.52 146.782 36.344 149.086 34.296C151.39 32.248 153.694 30.2853 155.998 28.408C156.51 28.2373 157.022 28.152 157.534 28.152C158.131 28.152 158.686 28.152 159.198 28.152C161.758 28.152 164.318 28.7067 166.878 29.816V40.824H162.782C161.075 38.776 158.899 37.752 156.254 37.752C152.243 37.752 147.593 40.8667 142.302 47.096V83.704L144.478 85.752L153.438 86.392V91H122.59V86.392ZM187.337 0.375999C189.385 0.375999 191.134 1.10133 192.585 2.55199C194.036 4.00266 194.761 5.752 194.761 7.8C194.761 9.84799 194.036 11.5973 192.585 13.048C191.134 14.4133 189.385 15.096 187.337 15.096C185.289 15.096 183.54 14.4133 182.089 13.048C180.638 11.5973 179.913 9.84799 179.913 7.8C179.913 5.66666 180.638 3.91733 182.089 2.55199C183.54 1.10133 185.289 0.375999 187.337 0.375999ZM191.689 28.792V83.704L193.993 85.752L200.905 86.392V91H172.105V86.392L178.889 85.752L181.065 83.704V37.368H172.105V33.4L186.825 28.792H191.689ZM206.7 37.112V33.144L215.148 29.432L220.652 17.528H225.388V31.096H244.844V37.112H225.388V70.904C225.388 73.3787 225.516 75.512 225.772 77.304C226.028 79.0107 226.54 80.4187 227.308 81.528C228.076 82.6373 229.143 83.4907 230.508 84.088C231.959 84.6 233.793 84.856 236.012 84.856C238.743 84.856 241.687 84.5147 244.844 83.832V88.568C241.857 89.5067 238.913 90.232 236.012 90.744C233.196 91.1707 230.551 91.384 228.076 91.384C222.785 91.384 219.244 90.36 217.452 88.312C215.66 86.264 214.764 82.9787 214.764 78.456V37.112H206.7ZM303.594 84.472C299.754 87.032 295.786 88.952 291.69 90.232C287.679 91.512 283.626 92.152 279.53 92.152C275.263 92.152 271.381 91.384 267.882 89.848C264.383 88.312 261.397 86.1787 258.922 83.448C256.447 80.7173 254.485 77.432 253.034 73.592C251.669 69.6667 250.986 65.3573 250.986 60.664C250.986 55.8 251.711 51.4053 253.162 47.48C254.613 43.4693 256.661 40.056 259.306 37.24C261.951 34.3387 265.066 32.12 268.65 30.584C272.319 28.9627 276.287 28.152 280.554 28.152C287.551 28.152 293.141 30.3707 297.322 34.808C301.503 39.2453 303.594 45.432 303.594 53.368C303.594 54.0507 303.594 54.7333 303.594 55.416C303.594 56.0133 303.551 56.6533 303.466 57.336H261.994V58.744C261.994 67.0213 263.957 73.464 267.882 78.072C271.807 82.5947 277.013 84.856 283.498 84.856C286.741 84.856 289.983 84.2587 293.226 83.064C296.469 81.784 299.925 79.9067 303.594 77.432V84.472ZM292.202 49.912C292.202 44.7067 291.05 40.7387 288.746 38.008C286.527 35.2773 283.242 33.912 278.89 33.912C276.842 33.912 274.879 34.3387 273.002 35.192C271.125 36.0453 269.418 37.2827 267.882 38.904C266.431 40.44 265.237 42.3173 264.298 44.536C263.359 46.7547 262.805 49.2293 262.634 51.96H292.202V49.912ZM372.398 29.432V34.168L365.614 34.68L364.078 36.728L379.438 76.536L395.438 36.728L394.414 34.68L387.502 34.168V29.432H410.286V34.168L402.862 35.192L377.262 97.4C374.275 104.653 371.161 110.029 367.918 113.528C364.675 117.112 360.963 118.904 356.782 118.904C354.051 118.904 351.875 118.221 350.254 116.856C348.718 115.576 347.95 113.869 347.95 111.736C347.95 109.176 349.059 106.872 351.278 104.824L363.566 109.688C365.273 107.811 367.022 105.293 368.814 102.136C370.606 98.9787 372.313 95.096 373.934 90.488L352.43 34.936L344.622 34.168V29.432H372.398ZM442.557 28.152C446.909 28.152 450.877 28.9627 454.461 30.584C458.13 32.12 461.288 34.296 463.933 37.112C466.578 39.928 468.626 43.2987 470.077 47.224C471.613 51.1493 472.381 55.4587 472.381 60.152C472.381 64.9307 471.613 69.2827 470.077 73.208C468.626 77.1333 466.578 80.504 463.933 83.32C461.288 86.136 458.13 88.312 454.461 89.848C450.792 91.384 446.824 92.152 442.557 92.152C438.29 92.152 434.322 91.384 430.653 89.848C427.069 88.312 423.954 86.136 421.309 83.32C418.664 80.504 416.573 77.1333 415.037 73.208C413.586 69.2827 412.861 64.9307 412.861 60.152C412.861 55.3733 413.586 51.0213 415.037 47.096C416.573 43.1707 418.621 39.8 421.181 36.984C423.826 34.168 426.941 31.992 430.525 30.456C434.194 28.92 438.205 28.152 442.557 28.152ZM442.557 33.656C437.352 33.656 433.085 36.0027 429.757 40.696C426.514 45.304 424.893 51.7893 424.893 60.152C424.893 64.248 425.32 67.96 426.173 71.288C427.112 74.5307 428.349 77.304 429.885 79.608C431.421 81.912 433.256 83.6613 435.389 84.856C437.608 86.0507 439.997 86.648 442.557 86.648C447.762 86.648 452.029 84.344 455.357 79.736C458.685 75.0427 460.349 68.5147 460.349 60.152C460.349 51.8747 458.685 45.3893 455.357 40.696C452.029 36.0027 447.762 33.656 442.557 33.656ZM500.165 28.152V70.52C500.165 75.128 501.146 78.5413 503.109 80.76C505.072 82.9787 508.229 84.088 512.581 84.088C517.189 84.088 522.138 82.808 527.429 80.248V36.856H518.341V32.888L533.189 28.152H538.053V83.704L540.357 85.752L546.373 86.392V91H527.429V83.832C523.589 86.5627 519.962 88.6533 516.549 90.104C513.136 91.5547 509.85 92.28 506.693 92.28C501.146 92.28 496.88 90.616 493.893 87.288C490.992 83.96 489.541 79.096 489.541 72.696V36.856H480.453V32.888L495.301 28.152H500.165ZM553.84 86.392L560.624 85.752L562.928 83.704V37.368H553.84V33.4L568.688 28.792H573.552V40.824C575.771 38.52 578.032 36.344 580.336 34.296C582.64 32.248 584.944 30.2853 587.248 28.408C587.76 28.2373 588.272 28.152 588.784 28.152C589.381 28.152 589.936 28.152 590.448 28.152C593.008 28.152 595.568 28.7067 598.128 29.816V40.824H594.032C592.325 38.776 590.149 37.752 587.504 37.752C583.493 37.752 578.843 40.8667 573.552 47.096V83.704L575.728 85.752L584.688 86.392V91H553.84V86.392ZM74.368 161.112V180.824H67.328L65.536 168.92L63.744 167H44.032V239.32L46.336 241.112L54.912 241.752V247H21.504V241.752L30.08 241.112L32.384 239.32V167H12.672L10.88 168.92L9.088 180.824H2.048V161.112H74.368ZM80.215 242.392L86.999 241.752L89.303 239.704V193.368H80.215V189.4L95.063 184.792H99.927V196.824C102.146 194.52 104.407 192.344 106.711 190.296C109.015 188.248 111.319 186.285 113.623 184.408C114.135 184.237 114.647 184.152 115.159 184.152C115.756 184.152 116.311 184.152 116.823 184.152C119.383 184.152 121.943 184.707 124.503 185.816V196.824H120.407C118.7 194.776 116.524 193.752 113.879 193.752C109.868 193.752 105.218 196.867 99.927 203.096V239.704L102.103 241.752L111.063 242.392V247H80.215V242.392ZM148.29 184.152V226.52C148.29 231.128 149.271 234.541 151.234 236.76C153.197 238.979 156.354 240.088 160.706 240.088C165.314 240.088 170.263 238.808 175.554 236.248V192.856H166.466V188.888L181.314 184.152H186.178V239.704L188.482 241.752L194.498 242.392V247H175.554V239.832C171.714 242.563 168.087 244.653 164.674 246.104C161.261 247.555 157.975 248.28 154.818 248.28C149.271 248.28 145.005 246.616 142.018 243.288C139.117 239.96 137.666 235.096 137.666 228.696V192.856H128.578V188.888L143.426 184.152H148.29ZM255.469 240.472C251.629 243.032 247.661 244.952 243.565 246.232C239.554 247.512 235.501 248.152 231.405 248.152C227.138 248.152 223.256 247.384 219.757 245.848C216.258 244.312 213.272 242.179 210.797 239.448C208.322 236.717 206.36 233.432 204.909 229.592C203.544 225.667 202.861 221.357 202.861 216.664C202.861 211.8 203.586 207.405 205.037 203.48C206.488 199.469 208.536 196.056 211.181 193.24C213.826 190.339 216.941 188.12 220.525 186.584C224.194 184.963 228.162 184.152 232.429 184.152C239.426 184.152 245.016 186.371 249.197 190.808C253.378 195.245 255.469 201.432 255.469 209.368C255.469 210.051 255.469 210.733 255.469 211.416C255.469 212.013 255.426 212.653 255.341 213.336H213.869V214.744C213.869 223.021 215.832 229.464 219.757 234.072C223.682 238.595 228.888 240.856 235.373 240.856C238.616 240.856 241.858 240.259 245.101 239.064C248.344 237.784 251.8 235.907 255.469 233.432V240.472ZM244.077 205.912C244.077 200.707 242.925 196.739 240.621 194.008C238.402 191.277 235.117 189.912 230.765 189.912C228.717 189.912 226.754 190.339 224.877 191.192C223 192.045 221.293 193.283 219.757 194.904C218.306 196.44 217.112 198.317 216.173 200.536C215.234 202.755 214.68 205.229 214.509 207.96H244.077V205.912ZM304.305 221.912H311.857L313.393 236.632L315.057 238.808C318.812 240.771 323.59 241.752 329.393 241.752C335.622 241.752 340.401 240.344 343.729 237.528C347.057 234.627 348.721 230.915 348.721 226.392C348.721 223.747 348.252 221.571 347.313 219.864C346.374 218.072 345.009 216.536 343.217 215.256C341.425 213.891 339.206 212.653 336.561 211.544C333.916 210.349 330.844 208.984 327.345 207.448C323.761 205.912 320.604 204.419 317.873 202.968C315.228 201.517 313.009 199.939 311.217 198.232C309.425 196.44 308.06 194.435 307.121 192.216C306.182 189.912 305.713 187.224 305.713 184.152C305.713 180.568 306.396 177.283 307.761 174.296C309.126 171.224 311.089 168.621 313.649 166.488C316.209 164.269 319.324 162.563 322.993 161.368C326.662 160.173 330.758 159.576 335.281 159.576C342.364 159.576 349.617 160.771 357.041 163.16V183H350.385L348.465 170.84L346.545 168.664C343.302 166.872 339.462 165.976 335.025 165.976C329.564 165.976 325.297 167.384 322.225 170.2C319.153 173.016 317.617 176.771 317.617 181.464C317.617 183.597 318.001 185.432 318.769 186.968C319.537 188.504 320.646 189.912 322.097 191.192C323.633 192.472 325.51 193.667 327.729 194.776C329.948 195.8 332.55 196.952 335.537 198.232C338.78 199.597 342.065 200.963 345.393 202.328C348.721 203.693 351.878 205.827 354.865 208.728C358.62 212.483 360.497 217.176 360.497 222.808C360.497 226.563 359.729 230.019 358.193 233.176C356.657 236.333 354.438 239.064 351.537 241.368C348.721 243.587 345.265 245.336 341.169 246.616C337.073 247.896 332.465 248.536 327.345 248.536C322.737 248.536 318.47 248.152 314.545 247.384C310.705 246.701 307.292 245.72 304.305 244.44V221.912ZM370.95 193.112V189.144L379.398 185.432L384.902 173.528H389.638V187.096H409.094V193.112H389.638V226.904C389.638 229.379 389.766 231.512 390.022 233.304C390.278 235.011 390.79 236.419 391.558 237.528C392.326 238.637 393.393 239.491 394.758 240.088C396.209 240.6 398.043 240.856 400.262 240.856C402.993 240.856 405.937 240.515 409.094 239.832V244.568C406.107 245.507 403.163 246.232 400.262 246.744C397.446 247.171 394.801 247.384 392.326 247.384C387.035 247.384 383.494 246.36 381.702 244.312C379.91 242.264 379.014 238.979 379.014 234.456V193.112H370.95ZM444.932 184.152C449.284 184.152 453.252 184.963 456.836 186.584C460.505 188.12 463.663 190.296 466.308 193.112C468.953 195.928 471.001 199.299 472.452 203.224C473.988 207.149 474.756 211.459 474.756 216.152C474.756 220.931 473.988 225.283 472.452 229.208C471.001 233.133 468.953 236.504 466.308 239.32C463.663 242.136 460.505 244.312 456.836 245.848C453.167 247.384 449.199 248.152 444.932 248.152C440.665 248.152 436.697 247.384 433.028 245.848C429.444 244.312 426.329 242.136 423.684 239.32C421.039 236.504 418.948 233.133 417.412 229.208C415.961 225.283 415.236 220.931 415.236 216.152C415.236 211.373 415.961 207.021 417.412 203.096C418.948 199.171 420.996 195.8 423.556 192.984C426.201 190.168 429.316 187.992 432.9 186.456C436.569 184.92 440.58 184.152 444.932 184.152ZM444.932 189.656C439.727 189.656 435.46 192.003 432.132 196.696C428.889 201.304 427.268 207.789 427.268 216.152C427.268 220.248 427.695 223.96 428.548 227.288C429.487 230.531 430.724 233.304 432.26 235.608C433.796 237.912 435.631 239.661 437.764 240.856C439.983 242.051 442.372 242.648 444.932 242.648C450.137 242.648 454.404 240.344 457.732 235.736C461.06 231.043 462.724 224.515 462.724 216.152C462.724 207.875 461.06 201.389 457.732 196.696C454.404 192.003 450.137 189.656 444.932 189.656ZM483.34 242.392L490.124 241.752L492.428 239.704V193.368H483.34V189.4L498.188 184.792H503.052V196.824C505.271 194.52 507.532 192.344 509.836 190.296C512.14 188.248 514.444 186.285 516.748 184.408C517.26 184.237 517.772 184.152 518.284 184.152C518.881 184.152 519.436 184.152 519.948 184.152C522.508 184.152 525.068 184.707 527.628 185.816V196.824H523.532C521.825 194.776 519.649 193.752 517.004 193.752C512.993 193.752 508.343 196.867 503.052 203.096V239.704L505.228 241.752L514.188 242.392V247H483.34V242.392ZM548.087 156.376C550.135 156.376 551.884 157.101 553.335 158.552C554.786 160.003 555.511 161.752 555.511 163.8C555.511 165.848 554.786 167.597 553.335 169.048C551.884 170.413 550.135 171.096 548.087 171.096C546.039 171.096 544.29 170.413 542.839 169.048C541.388 167.597 540.663 165.848 540.663 163.8C540.663 161.667 541.388 159.917 542.839 158.552C544.29 157.101 546.039 156.376 548.087 156.376ZM552.439 184.792V239.704L554.743 241.752L561.655 242.392V247H532.855V242.392L539.639 241.752L541.815 239.704V193.368H532.855V189.4L547.575 184.792H552.439ZM621.594 240.472C617.754 243.032 613.786 244.952 609.69 246.232C605.679 247.512 601.626 248.152 597.53 248.152C593.263 248.152 589.381 247.384 585.882 245.848C582.383 244.312 579.397 242.179 576.922 239.448C574.447 236.717 572.485 233.432 571.034 229.592C569.669 225.667 568.986 221.357 568.986 216.664C568.986 211.8 569.711 207.405 571.162 203.48C572.613 199.469 574.661 196.056 577.306 193.24C579.951 190.339 583.066 188.12 586.65 186.584C590.319 184.963 594.287 184.152 598.554 184.152C605.551 184.152 611.141 186.371 615.322 190.808C619.503 195.245 621.594 201.432 621.594 209.368C621.594 210.051 621.594 210.733 621.594 211.416C621.594 212.013 621.551 212.653 621.466 213.336H579.994V214.744C579.994 223.021 581.957 229.464 585.882 234.072C589.807 238.595 595.013 240.856 601.498 240.856C604.741 240.856 607.983 240.259 611.226 239.064C614.469 237.784 617.925 235.907 621.594 233.432V240.472ZM610.202 205.912C610.202 200.707 609.05 196.739 606.746 194.008C604.527 191.277 601.242 189.912 596.89 189.912C594.842 189.912 592.879 190.339 591.002 191.192C589.125 192.045 587.418 193.283 585.882 194.904C584.431 196.44 583.237 198.317 582.298 200.536C581.359 202.755 580.805 205.229 580.634 207.96H610.202V205.912ZM671.157 201.432H664.885L663.861 192.344C660.533 190.552 657.376 189.656 654.389 189.656C650.976 189.656 648.33 190.467 646.453 192.088C644.661 193.709 643.765 195.971 643.765 198.872C643.765 201.603 644.661 203.821 646.453 205.528C648.33 207.149 651.061 208.813 654.645 210.52C656.864 211.629 659.125 212.739 661.429 213.848C663.818 214.872 666.08 216.237 668.213 217.944C671.456 220.504 673.077 224.173 673.077 228.952C673.077 234.925 670.986 239.619 666.805 243.032C662.624 246.445 656.736 248.152 649.141 248.152C645.898 248.152 642.869 247.896 640.053 247.384C637.237 246.957 634.72 246.317 632.501 245.464V228.824H638.645L640.181 239.704C643.765 241.752 647.392 242.776 651.061 242.776C654.816 242.776 657.76 241.795 659.893 239.832C662.026 237.869 663.093 235.395 663.093 232.408C663.093 230.787 662.794 229.379 662.197 228.184C661.685 226.989 660.874 225.923 659.765 224.984C658.656 224.045 657.29 223.149 655.669 222.296C654.048 221.443 652.17 220.547 650.037 219.608C644.576 217.219 640.437 214.787 637.621 212.312C634.89 209.752 633.525 206.339 633.525 202.072C633.525 196.44 635.445 192.045 639.285 188.888C643.21 185.731 648.842 184.152 656.181 184.152C661.898 184.152 666.89 185.091 671.157 186.968V201.432Z" fill="white"/>
</svg>
