<svg width="24" height="24" viewBox="0 0 24 24" fill="none" xmlns="http://www.w3.org/2000/svg">
<path d="M2.35944 10.2683H22.1469C22.8984 10.2683 23.5063 9.66033 23.5063 8.90886C23.5063 8.15739 22.8984 7.54941 22.1469 7.54941H5.65987L7.88784 5.32144C8.42029 4.78899 8.42029 3.92801 7.88784 3.39934C7.35539 2.86689 6.49441 2.86689 5.96574 3.39934L1.54 7.8213C1.21147 8.07053 1 8.46326 1 8.90886C1 9.66033 1.60797 10.2683 2.35944 10.2683ZM23.1287 14.1201C22.8077 13.7991 22.3621 13.6707 21.943 13.7424H2.35944C1.60797 13.7424 1 14.3504 1 15.1019C1 15.8533 1.60797 16.4613 2.35944 16.4613H18.8653L16.6562 18.6704C16.1238 19.2029 16.1238 20.0638 16.6562 20.5925C16.9206 20.8569 17.268 20.989 17.6192 20.989C17.9704 20.989 18.314 20.8569 18.5821 20.5925L23.1287 16.0459C23.6574 15.5135 23.6574 14.6525 23.1287 14.1201Z" fill="white"/>
</svg>
