<svg width="24" height="24" viewBox="0 0 24 24" fill="none" xmlns="http://www.w3.org/2000/svg">
<path d="M12 17.9866C9.52607 17.9866 6.86351 17.019 4.3002 15.1885C2.38398 13.8202 1.20127 12.4645 1.15185 12.4074C0.949385 12.1736 0.949385 11.8266 1.15185 11.5928C1.20127 11.5358 2.38393 10.18 4.3002 8.81165C6.86356 6.98129 9.52612 6.01367 12 6.01367C14.4739 6.01367 17.1365 6.98124 19.6998 8.81165C21.616 10.18 22.7987 11.5357 22.8482 11.5928C23.0506 11.8266 23.0506 12.1736 22.8482 12.4074C22.7987 12.4644 21.6161 13.8202 19.6998 15.1885C17.1365 17.019 14.474 17.9866 12 17.9866ZM2.47506 12.0002C2.95334 12.4879 3.85601 13.3454 5.04783 14.1935C6.68176 15.3562 9.21422 16.7423 12 16.7423C14.7858 16.7423 17.3183 15.3562 18.9522 14.1935C20.1438 13.3456 21.0466 12.4879 21.5249 12.0002C21.0467 11.5125 20.144 10.6549 18.9522 9.80679C17.3183 8.64408 14.7858 7.258 12 7.258C9.21422 7.258 6.68176 8.64408 5.04783 9.80679C3.85616 10.6548 2.95344 11.5123 2.47506 12.0002Z" fill="white"/>
<path d="M12.0007 15.8568C9.87383 15.8568 8.14355 14.1265 8.14355 11.9997C8.14355 9.87291 9.87383 8.14258 12.0007 8.14258C12.936 8.14258 13.8384 8.48171 14.5413 9.09755C14.7997 9.32395 14.8257 9.71698 14.5993 9.97543C14.3729 10.2339 13.9798 10.2598 13.7214 10.0335C13.2455 9.61645 12.6343 9.38681 12.0006 9.38681C10.5599 9.38681 9.38774 10.559 9.38774 11.9997C9.38774 13.4404 10.5599 14.6126 12.0006 14.6126C13.4414 14.6126 14.6135 13.4404 14.6135 11.9997C14.6135 11.6561 14.8921 11.3776 15.2356 11.3776C15.5792 11.3776 15.8577 11.6561 15.8577 11.9997C15.8578 14.1265 14.1275 15.8568 12.0007 15.8568Z" fill="white"/>
<path d="M12.0001 13.2443C11.314 13.2443 10.7559 12.6862 10.7559 12.0001C10.7559 11.314 11.314 10.7559 12.0001 10.7559C12.6862 10.7559 13.2443 11.314 13.2443 12.0001C13.2443 12.6862 12.6862 13.2443 12.0001 13.2443Z" fill="white"/>
</svg>
