<svg width="260" height="290" viewBox="0 0 260 290" fill="none" xmlns="http://www.w3.org/2000/svg">
<ellipse cx="129.5" cy="145" rx="115.5" ry="119" fill="#D9D9D9"/>
<path d="M51.125 116.101C53.9395 75.1802 85.2916 43.0005 130.98 43C176.668 42.9995 205.306 75.5775 209.642 116.101C213.979 156.624 165.171 248 129.39 248C93.6098 248 48.3104 157.021 51.125 116.101Z" fill="#151515"/>
<path d="M67.7861 123.252C72.4526 160.021 85.1 175.997 121.817 185.229C118.786 147.126 105.584 130.696 67.7861 123.252Z" fill="#D9D9D9" stroke="black" stroke-width="0.794574"/>
<path d="M139.298 185.229C175.325 174.904 189.356 160.164 192.965 123.252C155.355 132.208 140.956 147.556 139.298 185.229Z" fill="#D9D9D9" stroke="black" stroke-width="0.794574"/>
</svg>
