<svg width="147" height="41" viewBox="0 0 147 41" fill="none" xmlns="http://www.w3.org/2000/svg">
<path d="M12.672 11.536L21.276 16.324C23.976 17.548 25.776 20.644 25.776 23.38C25.776 30.184 18.288 32.2 13.068 32.2C5.976 32.2 1.656 28.672 0 26.404C1.872 25 3.996 22.84 5.148 20.608C6.444 28.636 9.936 30.004 12.312 30.004H12.348C13.068 30.004 17.1 29.968 17.1 25.54C17.1 23.848 15.48 22.156 13.752 21.364L5.364 16.864C2.88 15.388 1.404 12.94 1.404 10.348C1.404 3.796 7.74 0.951998 13.212 0.951998C20.16 0.951998 23.796 4.768 25.236 6.928C23.076 7.792 20.556 10.168 19.224 12.076C19.368 11.32 19.44 10.528 19.44 9.736C19.44 6.352 18.036 2.932 13.86 2.932C13.248 2.932 9.036 3.22 9.036 7.072C9.036 9.124 10.872 10.708 12.672 11.536ZM37.1652 9.196C46.3452 9.196 51.7452 16.036 51.7452 23.272C51.7452 28.636 48.5412 32.2 43.9332 32.2C40.2252 32.2 37.8492 30.256 36.1572 28.132C36.1932 32.308 36.3372 36.412 36.5892 40.444C35.1852 40.12 33.7092 39.976 32.2692 39.976C30.8292 39.976 29.3892 40.12 27.9492 40.444C28.2372 35.62 28.4172 30.076 28.4172 24.568C28.4172 19.204 28.2732 13.84 27.9492 9.196C28.8852 9.376 30.5052 9.556 32.3412 9.556C33.2412 9.556 36.0132 9.196 37.1652 9.196ZM40.4052 30.004C41.5572 30.004 43.1052 28.708 43.1052 23.776C43.1052 14.488 38.6052 11.5 36.4812 11.104C36.2652 15.64 36.1212 20.356 36.1212 25.036C36.1212 25.648 36.1572 26.296 36.1572 26.908C37.2732 28.564 38.9292 30.004 40.4052 30.004ZM69.1912 9.268H69.2272C71.2792 9.268 73.1512 9.52 75.0232 9.52C75.9592 9.52 76.8952 9.448 77.8312 9.268C77.5432 12.616 77.3992 16.18 77.3992 19.744C77.3992 24.1 77.6512 28.42 78.2272 32.2C76.8232 31.876 75.2752 31.732 73.7272 31.732C72.1792 31.732 70.6312 31.876 69.1912 32.2V27.124C68.5792 28.636 66.0232 32.2 61.4872 32.2C59.6512 32.2 54.0352 31.552 54.0352 23.92C54.0352 11.104 67.0312 9.268 69.1912 9.268ZM65.4112 29.428C66.7432 29.428 68.2192 27.592 69.1912 25.756V11.14C66.2392 11.5 62.6752 15.208 62.6752 23.704C62.6752 27.988 64.1152 29.428 65.4112 29.428ZM102.255 24.388L102.435 24.604C101.175 28.024 97.6472 32.2 91.9952 32.2C84.6152 32.2 80.3672 27.052 80.3672 20.716C80.3672 14.344 84.8672 9.196 92.2472 9.196C96.3152 9.196 99.4832 10.744 101.535 13.192C99.2312 14.488 97.0352 16.936 95.7752 19.24C95.6312 14.596 93.9392 11.068 92.1752 11.068C90.4472 11.068 88.5752 13.732 88.5752 18.232C88.5752 24.676 92.3912 27.412 96.0272 27.412C98.4752 27.412 100.563 26.476 102.255 24.388ZM125.177 24.388L125.321 24.604C124.097 28.06 120.533 32.2 114.917 32.2C107.537 32.2 103.289 27.052 103.289 20.716C103.289 14.38 107.789 9.196 115.169 9.196C121.469 9.196 124.997 14.38 124.997 17.908C124.997 21.112 120.857 21.4 115.601 21.4H111.713C112.577 25.54 115.673 27.412 118.913 27.412C121.397 27.412 123.485 26.476 125.177 24.388ZM114.809 11.068C112.505 11.068 111.317 15.064 111.317 18.304C111.317 18.952 111.389 19.528 111.461 20.068C111.965 20.068 112.505 20.104 113.045 20.104C115.277 20.104 117.437 19.744 117.437 16.252C117.437 13.48 116.357 11.068 114.809 11.068ZM133.449 13.228C133.449 17.548 146.841 18.484 146.949 25.216V25.252C146.949 29.824 141.909 32.164 137.121 32.236H136.941C130.353 32.236 126.609 28.708 126.141 27.7C127.941 26.692 129.417 25.252 130.533 23.488L130.713 23.164C130.785 25.468 132.117 30.004 136.689 30.004H136.797C137.157 30.004 140.037 29.86 140.037 27.376V27.34C140.001 23.236 127.257 22.264 127.185 15.892V15.784C127.185 11.068 132.369 8.836 136.509 8.8H136.725C140.757 8.8 144.285 10.852 146.121 12.904C144.249 13.84 142.881 15.028 141.981 16.864L141.621 17.62V17.152C141.621 14.596 140.721 10.78 136.833 10.78C135.321 10.78 133.449 11.536 133.449 13.228Z" fill="white"/>
</svg>
