<svg width="136" height="33" viewBox="0 0 136 33" fill="none" xmlns="http://www.w3.org/2000/svg">
<path d="M14.12 2.204L13.22 4.4L12.608 5.624L11.816 6.452L11.78 6.488L11.312 6.992L10.988 7.352L10.88 7.748L10.808 8.108L10.844 8.612L10.88 9.692L9.872 12.464L9.044 14.228L8.612 14.732L8.432 14.84L8.36 14.984L7.928 15.776L7.712 15.992L7.568 15.74L7.604 15.56L7.748 15.092L7.82 14.912L7.712 14.876L7.424 14.768L7.352 14.48L7.316 13.76L8.252 11.348L11.708 2.96L12.68 0.872L13.184 0.295998L13.436 0.079999L13.76 0.115999L14.192 0.151998L14.336 0.512L14.48 0.907999L14.408 1.196L14.12 2.204ZM16.352 6.2L15.56 8.036L15.236 8.612L15.056 8.864L14.588 9.044L14.228 8.972L13.904 8.648V8.18L14.156 7.46L13.94 7.424L13.652 7.352L13.472 7.136L13.148 6.776V6.56L13.112 5.984L13.256 5.552L13.724 4.292L14.624 2.204L15.164 1.052L15.74 0.583999H15.92L16.676 0.763999L17.18 1.268V1.556V2.06L16.928 2.672L16.568 3.536L16.676 3.572L17 4.076L16.928 4.544L16.352 6.2ZM10.34 4.256L6.812 12.752L6.164 14.228L5.876 14.768L5.444 14.948L5.264 14.984V14.804L5.336 14.336L4.868 14.192L4.688 14.12L4.652 13.832L4.616 13.148L5.48 10.916L8.504 3.608L9.224 1.916L9.62 1.232L10.016 0.763999L10.52 0.692L10.844 0.799998L11.096 1.196L11.024 1.628L10.772 2.276L10.916 2.312L10.88 2.6L10.34 4.256ZM7.964 4.076L4.724 11.924L4.04 13.4L3.788 13.832L3.572 13.868L3.068 14.012L2.996 13.796L2.78 13.076L3.104 12.068L2.996 12.104L2.6 12.212L2.276 11.924L2.06 11.708L1.952 11.348L2.168 9.548L2.852 7.856L4.112 4.868L4.976 2.852L5.552 1.736L6.488 0.979998L6.812 0.799998L7.388 0.907999L7.604 0.943999L7.64 1.232L7.712 1.7L8.036 1.484L8.396 1.7L8.576 1.808V2.276L7.964 4.076ZM20.096 7.568L19.484 8.468L19.232 8.684H18.836H18.512L18.368 8.288L18.296 8V7.964H18.26L17.792 8H17.468L17.288 7.784L17 7.388V7.208L17.036 6.632L17.396 5.624L18.044 4.112L18.44 3.356L18.584 3.104L19.16 2.852H19.484L20.024 3.14L20.132 3.5L20.276 3.896L20.096 4.796L19.844 5.444L20.132 5.624L20.348 5.804L20.42 6.2L20.096 7.568ZM0.836 6.344L2.276 3.752L2.888 3.248L3.176 3.284L3.5 3.356L3.464 3.536L3.428 3.968L3.788 3.356L4.004 3.104L4.076 3.284L4.112 3.932L1.952 9.152L1.376 10.376L1.088 10.628L1.016 10.304L0.908 10.016L1.052 9.656L1.376 8.756L1.196 8.972L0.656 8.864L0.584 8.468L0.836 6.344ZM21.536 7.136L21.212 7.1L21.248 6.92L21.356 6.56L21.392 6.344L21.608 6.308L21.968 6.272L21.86 6.776L21.536 7.136ZM12.68 15.02L11.996 16.568L11.564 17.108L11.132 17.432L10.772 17.288L10.52 17.216L10.448 16.892L10.52 16.136L10.628 15.776L10.268 15.74L9.836 15.488L9.584 15.056L9.62 14.66L9.908 13.544L10.844 11.276L11.492 10.088L12.068 9.62L12.464 9.548L12.788 9.512L13.112 9.764L13.364 9.944L13.436 10.304L13.472 10.7L13.4 11.096L13.148 11.744H13.364L13.436 11.924L13.58 12.392L13.544 12.68L12.68 15.02ZM17.144 14.876L13.22 24.38L12.5 25.712L12.284 26.036L11.96 26.252L11.492 26.36L10.952 26.108L10.988 25.928L11.024 25.496L10.736 25.604L10.448 25.712L10.196 25.568L9.764 25.352V25.172L9.656 24.668L9.8 24.02L10.592 22.076L11.816 19.664L13.328 18.584L13.724 18.296L13.76 18.008L13.868 17.54L13.724 17.18L13.4 16.064L13.868 14.228L14.912 11.744L15.596 10.844L15.884 10.592L16.46 10.556L16.748 10.7L17.108 11.132V11.528L16.964 12.176L17.036 12.104L17.396 12.356L17.648 12.572V13.04L17.144 14.876ZM18.692 15.56L15.452 23.372L14.588 25.172L14.228 25.46L14.012 25.568V25.388L13.976 24.884L14.048 24.776L13.832 24.488L13.904 24.2L14.804 21.86L17.936 14.336L18.764 12.608L19.16 12.356H19.376L19.34 12.788L19.052 13.688L19.196 13.76L19.16 13.976L18.692 15.56ZM20.492 16.388L19.016 19.916L18.044 22.22L17.324 23.912L16.892 24.74L16.28 25.1L16.1 24.668L15.956 24.812L15.812 24.416L15.884 23.768L16.316 22.688L19.196 15.704L19.88 14.12L20.132 13.616L20.708 13.256L20.816 13.76L20.672 14.192L20.708 14.156L21.104 14.48L20.996 14.948L20.492 16.388ZM22.904 16.82L21.356 20.924L19.988 23.768L18.548 24.812L17.936 24.74L17.648 24.38L17.684 23.912L17.9 23.336L17.792 23.552L17.9 23.156L18.476 21.716L20.564 16.676L20.96 15.992L21.464 14.948L21.824 14.588L22.184 14.696L22.472 14.768L22.652 15.128L22.868 15.488L22.904 16.82ZM6.92 19.592L5.948 21.896L5.516 22.652L5.336 22.976L4.976 23.156L4.796 23.588L4.22 24.596L3.968 24.2L4.076 23.948L4.256 23.408L4.364 23.156L4.292 23.12L4.004 22.976L3.968 22.58L3.896 22.184L4.076 21.428L5.012 19.16L5.696 17.936L6.38 17.432L6.848 17.54L7.136 17.612L7.208 18.008L7.316 18.404L7.208 18.692L6.92 19.592ZM23.012 20.42L22.58 21.248L22.004 22.004L21.788 22.184L21.608 22.148L21.284 22.04L21.32 21.752L21.5 21.032L22.508 18.62L22.796 18.044L22.94 17.756L23.156 17.792H23.372L23.408 18.008L23.444 18.368L23.012 20.42ZM9.296 23.192L8.216 25.64L7.748 26.252L7.568 26.468L7.28 26.432L6.812 26.396L6.596 25.676L6.812 24.92L6.92 24.668H6.776H6.488L6.2 24.416L5.912 24.128V23.912V23.264L6.416 21.932L7.388 19.628L7.892 18.692L8.108 18.368L8.684 18.188L8.864 18.116L9.116 18.26L9.512 18.512L9.584 18.692L9.764 19.232L9.44 20.708L9.368 20.888L9.548 20.924L9.62 21.104L9.8 21.572L9.728 21.932L9.296 23.192ZM3.104 21.68L2.672 22.652L2.42 23.048L1.988 23.192L1.916 22.796L2.06 22.148L2.096 22.004L1.772 21.752L1.556 21.536L1.52 21.068L2.024 19.304L2.708 18.368L2.924 18.152H3.32L3.716 18.26L3.788 18.692L3.824 18.98L3.68 19.52L3.536 19.844L3.68 19.88L3.608 20.24L3.104 21.68ZM1.376 19.808L1.052 20.456L0.728 20.636L0.44 20.78L0.26 20.564L0.00800003 20.276L0.044 20.06L0.116 19.448L0.62 18.728L1.016 18.692L1.34 18.656L1.412 18.944L1.52 19.448L1.376 19.808ZM40.3376 10.052L39.5096 11.996L38.9696 13.328L38.4656 14.48L38.1416 14.768L37.8176 14.552L37.8536 14.264L38.1416 13.256L38.3576 12.644L38.3216 12.68L37.9976 12.536L37.7096 12.104L37.7456 11.636L38.2856 9.908L39.5096 7.46L39.6896 7.208L40.0856 7.1L40.4816 7.136L40.7696 7.532V7.784L40.5536 8.468L40.6256 8.756L40.6976 9.08L40.5896 9.332L40.3376 10.052ZM31.5176 10.736L27.2336 20.996L26.6216 22.508L26.2256 23.408L25.7576 24.02L25.7936 23.804L25.9016 23.192L26.2616 22.292L26.2976 22.22L25.9736 22.04L25.9376 21.536L26.0096 18.44L26.9456 15.416L28.3856 11.96L29.3216 9.656L30.0416 8.18L30.5456 7.604L30.9776 7.424L31.2656 7.316L31.8056 7.424L32.0216 7.46L32.0936 7.64L32.3096 8.144L32.2736 8.324L32.1296 9.008L31.8416 9.692V9.944L31.5176 10.736ZM42.3896 13.328L38.1056 23.66L37.3136 25.424L36.9896 25.892L36.5576 26.108L36.2696 26.144L35.8736 25.784V25.46L35.9456 24.668L36.1976 24.092H36.0536L35.8376 24.056L35.7656 23.768L35.6216 23.3L35.6936 22.832L36.1616 21.5L37.2056 19.556L38.2496 17.792L38.5736 16.28L38.9336 14.84L39.9056 12.428L41.2736 9.152L42.2096 7.64L42.5336 7.388L42.8576 7.604L43.1456 7.748L43.1816 8.252L42.7856 9.692L43.0016 9.728L43.1816 9.764L43.2176 9.944L43.3976 10.52L43.3256 10.808L43.1096 11.528L42.3896 13.328ZM36.7016 9.548L35.2256 13.004L34.1456 15.092L33.1736 18.08L31.7336 21.608L29.1776 27.728L27.3416 31.94L26.8376 32.48L26.5856 32.66L26.1896 32.588L25.9016 32.516L25.7576 32.228L25.6136 31.832L25.6496 31.544L25.8296 30.824L26.1896 29.996L26.1176 29.744L26.2976 28.808L26.6216 28.052L26.3696 27.98L26.1536 27.944L26.0816 27.62L26.0096 26.828L26.5496 23.732L28.2776 19.556L31.3016 12.284L32.0936 10.34L32.6336 9.116L32.9216 8.612L33.3176 8.324L33.5336 8.18L33.9296 8.288L34.3256 8.396L34.4336 8.828L34.5416 9.224L34.4336 9.584L34.3976 9.656L34.6136 9.548L34.5416 9.944L34.5056 10.016L35.3696 8.504L36.0536 8.108L36.4136 8.216L36.7016 8.288L36.7736 8.576L36.8456 9.008L36.7016 9.548ZM37.5296 10.556L36.7736 12.104L36.4136 12.428L36.2696 11.924L36.4856 11.276L37.3136 9.332L37.7096 8.576H37.8536L38.1056 8.288L38.0336 8.576H38.2136L38.1416 8.9L37.8896 9.656L37.5296 10.556ZM27.5216 11.456L26.5136 13.94L26.1536 14.552L25.9736 14.804L25.7936 14.768L25.5056 14.732L25.4696 14.48L25.4336 13.688L26.2616 10.232L26.6936 9.332L26.7656 9.116L26.8376 9.08L26.9096 8.864L27.2696 8.504L27.4496 8.324L27.9536 8.288H28.1336L28.2056 8.468L28.4216 8.936L28.3496 9.224L27.5216 11.456ZM28.1336 12.176L27.3776 14.048L26.5496 15.956L26.3696 16.316L26.1536 16.28L25.9376 16.244L26.0816 15.884L26.4776 14.804L26.6576 14.3L26.6216 14.444L26.5856 14.264L26.8736 13.544L28.0616 10.628L28.4936 9.656L28.6376 9.404L28.6016 9.692L28.4936 9.98L28.9616 9.008L29.2856 8.612V8.828L29.2136 9.512L28.1336 12.176ZM45.8816 17.072L44.0096 21.644L42.7136 24.74L41.4896 26.072L41.0576 26.252L40.8056 26.108L40.4456 25.856V25.352L40.6616 24.704L40.3016 25.352L39.9776 25.604L39.5096 25.748L39.2576 25.82L38.5736 25.424L38.5376 25.208L38.3936 24.632L38.7176 23.516L39.4376 21.752L42.6416 14.048L43.6496 11.636L44.2256 10.448L44.8376 9.944L45.1256 10.016L45.6296 10.304L45.9536 10.736L45.9896 11.132L45.9176 12.428L45.3776 13.832L45.9176 13.904L45.9896 14.084L46.0976 14.444L45.8816 17.072ZM33.1736 21.032L29.7896 29.276L29.0336 31.04L28.7456 31.58L28.2776 31.4L28.3136 31.22L28.4576 30.716L29.3576 28.52L32.4536 20.996L32.9936 19.772L33.2816 19.268L33.4256 19.196L33.7496 18.404L34.3256 17.36L34.2536 17.756L33.7496 19.088V19.412L33.6416 19.88L33.1736 21.032ZM46.3496 20.348L44.8376 23.696L44.2976 24.236L43.8656 24.272L43.5776 24.308V24.128L43.6136 23.552L44.1536 22.112L45.3416 19.304L45.4856 19.016L45.9176 17.972L46.2056 17.432L46.0616 17.828L45.9896 18.08L46.0976 17.936L46.5656 18.116V18.62L46.3496 20.348ZM35.0456 22.796L33.8576 25.496L32.0576 30.032L31.2656 31.688L30.8696 31.94L30.6896 31.904V31.688L30.6536 31.724L30.2576 31.688L29.8976 31.652L29.8256 31.364L29.7536 30.68L30.6176 28.412L33.2096 22.112L33.9656 20.348L34.2896 19.772L34.4696 19.52L34.9016 19.304L35.2256 19.376L35.5856 19.7V20.132L35.1896 21.5L35.4776 21.572L35.3696 21.86L35.0456 22.796ZM34.7576 28.628L33.9296 30.896L33.6056 31.364L32.9216 31.688L32.6336 31.436L32.3816 31.256L32.4176 31.04L32.4536 30.536L32.8856 29.348L33.7136 27.332L34.0736 26.54L34.2176 26.288L34.7576 26.36L34.8296 26.684L34.7576 28.628ZM33.2816 31.508L33.4616 31.976L33.0296 32.156L33.1016 31.94L33.2816 31.508ZM58.6663 11.204L57.6583 12.608L57.2983 12.86L56.7583 12.932L56.4703 12.824L56.1823 12.32L56.2543 12.032L56.2903 11.852L56.0743 11.924L55.7503 11.852L55.4623 11.456L55.4983 11.096L55.8223 9.98L56.5783 8.216L57.1903 7.244L57.8383 6.884L58.1623 7.064L58.4143 7.208V7.64L58.3063 8L58.4143 7.964L58.7743 7.784L59.1343 8L59.4583 8.216L59.4943 8.396L59.5303 8.828L59.3863 9.512L58.6663 11.204ZM56.0023 23.948L55.0663 25.64L54.8863 25.892L54.3103 25.784L54.2743 25.388L54.5623 24.38L54.3103 24.272V23.84L54.4903 23.12L54.9583 21.86L57.1543 16.64L57.9103 14.984L58.1983 14.516L58.4863 14.444L58.9183 14.264V14.48L59.1343 14.228L59.7463 11.96L60.1783 10.592L60.3223 10.304L60.0703 10.088L60.1063 9.656L60.5023 8.54L60.7543 8.036L61.2223 7.424L61.5103 7.496L61.7623 7.568V7.964L61.5823 8.612L62.0143 8.684V9.116L61.4743 10.772L58.7023 17.396L58.1263 18.404L57.8023 18.62L57.4783 18.728L56.1823 21.86L56.2183 21.896L56.4703 22.04L56.4343 22.472L56.0023 23.948ZM55.2103 10.34L54.4903 11.924L54.0943 12.464L53.6263 12.824L53.1943 12.644L53.0143 12.572L52.9783 12.176L52.9063 11.78L53.0503 11.42L53.1223 11.204L52.9423 10.88L53.0863 10.34L53.7703 8.756L54.2383 8.108L54.5983 8.432L54.7783 8.144L55.2463 7.892L55.5703 8.144L55.8223 8.36L55.7503 8.828L55.2103 10.34ZM64.2823 11.924L59.4943 23.444L57.7303 26.108L57.4063 26.324L56.9743 26.396L56.6503 26.432L56.4343 26.252L56.1103 26.036V25.748V25.28L56.2543 24.812L56.4703 24.344L56.5423 24.128L57.1903 22.508L57.5863 21.896L57.6583 22.076V22.112L58.3423 21.32L59.2423 20.096L59.3503 18.512L59.5303 16.964L59.7823 16.352L59.7463 16.316L59.9263 15.884L60.3583 14.804L62.4823 9.692L62.8783 8.828L63.0943 8.54L63.4183 8.504L63.3463 8.828L63.4543 8.756L63.8863 8.72H64.2103L64.5343 8.972L64.8223 9.188L64.8943 9.62L64.9303 10.016L64.8223 10.484L64.2823 11.924ZM68.1343 14.984L66.0823 20.276L64.8583 23.192L64.1383 24.848L63.4543 25.784L63.1303 26.036L62.6263 26.144L62.4103 26.216L62.0503 26L61.7623 25.856L61.6903 25.676L61.5463 25.172L61.6183 24.884L61.7623 24.344L61.3303 24.416L61.1503 24.452L60.7543 24.308L60.4663 24.164L60.3943 23.948L60.2143 23.48L60.2503 23.192L60.5383 22.256L61.5103 19.952L64.6063 12.428L65.5063 10.304L65.9023 9.548L66.0463 9.296L66.5503 9.044L66.7303 8.972L66.9823 9.08L67.4143 9.296L67.4863 9.476L67.7383 9.98V10.412L67.3063 11.924L67.4143 11.996L67.8103 12.176L67.9543 12.536L68.1343 14.984ZM49.8823 11.168L51.0703 9.98L51.4663 9.728L51.6463 9.764L52.1143 9.872V10.088V10.484L51.8983 11.132L51.1783 12.68L50.6743 13.256L50.2423 13.328L49.9543 13.4L49.6663 13.076L49.4503 12.86V12.536L49.4143 12.14L49.8823 11.168ZM56.1463 17.396L54.2743 21.896L53.1223 24.632L52.5823 25.46L52.4023 25.676L51.7903 25.784L51.4663 25.676L51.0703 25.244V24.74L51.4663 23.444H51.3943H51.1063L50.9983 23.192L50.7823 22.724L50.9263 21.968L51.4303 20.6L52.3663 18.296L53.0863 16.64L53.6263 15.632L54.1303 15.092L54.4903 15.02L54.7783 14.984L54.9943 15.308L55.1023 15.56L55.2103 15.452L55.7503 15.344L55.9303 15.308L56.2543 15.56L56.4703 15.74V16.064L56.1463 17.396ZM68.0263 19.268L66.1903 23.66L65.6503 24.668L65.3623 24.776L65.4703 24.488L65.5063 24.38L65.2183 24.668L64.7863 24.416L64.9303 24.02L65.4703 22.58L67.5223 17.612L68.0983 16.388L68.4943 16.064L68.7463 16.136L68.7103 16.352L68.6743 16.712L68.4583 17.468L68.1343 18.296L68.3503 18.152L68.2783 18.44L68.0263 19.268ZM52.1143 17.828L50.7103 21.248L50.1703 22.328L49.9903 22.688L49.6663 22.76L49.2703 22.904L49.0903 22.652L48.8743 22.328L48.9103 21.536L49.3063 20.348L49.7023 19.412L49.6303 19.196L49.6663 18.728L50.0623 17.648L50.4943 17L50.7823 17.108H50.8183L51.0703 16.676L51.6823 16.244L52.0783 16.316L52.3663 16.388V16.712V17.18L52.1143 17.828ZM69.2863 17.216V19.808L69.2143 21.392L68.8183 22.472L68.0623 24.308L67.9543 24.488L67.9183 24.632L67.8103 24.884H67.7383L67.5223 25.244L67.2703 25.568H67.0903H66.4063L65.9383 25.532L65.7583 25.496L65.9023 25.136L66.2983 24.164L67.9903 20.132L68.8183 18.116L69.2863 17.216ZM78.8289 10.628L74.9769 19.916L74.2929 21.392L74.0409 21.824L73.5009 21.932L73.2129 21.86L72.8529 21.392L72.8169 21.104L72.8529 20.24L73.6809 18.008L77.0649 9.836L78.0729 7.856L78.4329 7.532L78.6489 7.352L79.1169 7.244L79.5489 7.388L79.8009 7.82L79.7289 8.108L78.8289 10.628ZM80.1609 22.4L79.2609 24.74L78.6129 25.856L78.0009 26.288H77.5689L77.2449 26.324L76.9929 26.108L76.6689 25.856L76.6329 25.64L76.5609 25.1L76.6329 24.74L76.8489 24.2H76.8129L76.4889 24.308L76.3809 23.984L76.2369 23.624L76.3089 23.228L77.4609 20.204L81.4569 10.556L82.5009 8.288L83.2209 7.604L83.5089 7.748L83.7609 7.892V8.288L83.6889 8.54L84.2649 8.288L84.7329 8.432L85.1289 8.684L85.4169 9.44L85.3089 10.124L84.8769 11.276L84.1209 13.04L83.6529 14.012L83.4729 14.336L83.0769 14.48L82.7169 14.624L82.3569 14.408L82.0329 14.192L81.8889 13.868L81.6729 12.752L80.7009 14.012L80.1249 17.036L79.1889 19.52L79.6209 19.592L79.8009 19.952L80.2689 21.644L80.1609 22.4ZM81.3489 9.944L76.5249 21.536L75.6969 23.48L75.3009 24.056L74.7609 24.452L74.5449 24.38L74.0769 24.2L73.9689 23.912L73.7889 23.444L73.8249 23.048L74.8329 20.276L78.5049 11.42L79.5849 8.936L80.1249 8.18L80.3409 8L80.8449 7.856L81.0249 7.784L81.3489 8L81.6009 8.18L81.6369 8.576L81.3489 9.944ZM89.0169 12.608L87.7929 14.768L87.4689 15.02L86.9289 15.056L86.6049 14.948L86.2449 14.552V14.228L86.3169 13.796L86.2089 13.868L85.7409 13.94L85.4529 13.976L85.2729 13.724L84.9849 13.292L85.0209 13.112L85.0929 12.536L85.5969 11.276L86.2809 9.62L86.8209 8.684L87.0369 8.36L87.9009 8.144L88.4049 8.468L88.4769 8.864L88.5129 9.26L88.1889 10.376H88.2969H88.6929L88.9449 10.7L89.1969 11.024V11.312L89.2329 11.78L89.0169 12.608ZM76.6329 10.196L73.5729 17.54L72.9969 18.872L72.7089 19.232L72.5289 19.556L72.6009 19.412L71.9889 19.556L71.6649 19.268V18.872L72.1689 16.64L74.0769 12.032L75.3009 9.26L76.0569 8.36L76.3089 8.18L76.6329 8.252L76.9209 8.324L76.9929 8.72L77.0289 9.008L76.9209 9.404L76.6329 10.196ZM73.8249 12.176L72.9969 14.12L72.4929 15.344L71.8809 16.568L71.6289 16.856L71.6649 16.568L71.9529 15.56L72.1689 15.092L72.0969 15.056L71.8809 14.84L71.9169 14.552L72.0249 13.652L72.7809 11.492L73.3569 10.412L74.0409 9.62L74.5089 9.476L74.7249 9.62L74.6889 9.8L74.5089 10.484L74.4009 10.7L74.3649 10.772L73.8249 12.176ZM90.5289 11.492L90.7089 11.24L90.6009 11.528L90.4569 11.96L90.3849 11.744L90.5289 11.492ZM90.4569 12.86L90.8169 12.284L91.0689 12.752L90.6009 13.256L90.4569 12.86ZM88.8369 13.976L89.4129 12.572L89.7729 12.392L89.7009 12.788L89.2689 13.868L88.8369 13.976ZM90.7089 13.832L90.8529 14.228L90.9249 14.408L90.3489 14.696L90.2769 14.084L90.7089 13.832ZM85.4529 21.176L84.1929 24.272L83.3289 25.964L82.7529 26.504L82.3929 26.576L81.9969 26.684L81.6729 26.468L81.3129 26.216L81.3489 26.036L81.3849 25.388L81.4209 25.28H81.3849L81.0609 25.388L80.8449 25.208L80.5209 24.992L80.4489 24.668L80.3769 24.272L80.5209 23.624L80.9889 22.364L82.8249 19.412L83.6889 18.8L84.0489 18.62L84.2649 18.836L84.4449 19.196L84.8769 19.16L85.1649 19.088L85.4529 19.34L85.7409 19.592V19.988L85.7769 20.384L85.4529 21.176ZM87.0369 20.204L86.5329 21.464L86.2089 22.256L85.8129 23.012L85.6329 22.976L85.8849 22.364L86.8929 19.88L87.2169 19.196L87.3969 18.98L87.4329 19.196L87.0369 20.204ZM89.1249 21.212L87.2169 25.064L86.6409 25.46L86.3889 25.604L86.0289 25.46L85.7049 25.352V25.136V24.56L85.8849 24.092L85.8129 24.02L85.8849 23.732L86.1729 22.904L87.2169 20.348L87.7569 19.448L88.0089 19.16L88.0449 19.34L88.1169 19.556L88.5129 19.304L88.9089 19.448L89.1969 19.556L89.2689 19.88L89.3769 20.276L89.1249 21.212ZM90.8169 21.68L89.6649 23.3L89.0889 23.48L88.9089 23.516V23.3L88.9809 22.58L89.6649 20.924L90.0969 19.952L90.5649 19.34L91.1769 19.304L91.2489 19.484L91.3929 19.952L91.3209 20.312L90.8169 21.68ZM85.9209 22.184L85.3449 23.516L84.5889 25.1L84.2649 25.496V25.316L84.3369 24.56L85.5249 21.644L86.2089 20.384L86.5329 20.204L86.4969 20.6L85.9209 22.184ZM104.031 23.156L103.059 25.46L102.375 26.504L101.727 26.9L101.223 26.864L100.899 26.828L100.611 26.432L100.431 26.216L100.467 25.82L100.611 25.136L100.287 25.244L100.071 25.316L99.6754 25.136L99.3874 25.028L99.2074 24.524L99.0994 24.236L99.2434 23.66L99.9994 21.716L101.799 17.36L102.915 15.02L104.319 14.012L104.787 13.688L104.895 13.292L105.003 12.896L104.931 12.5L104.715 11.348L105.399 8.756L106.011 7.784L106.659 7.424L107.163 7.496L107.451 7.532L107.703 7.928L107.883 8.18L107.811 8.648L107.631 9.26L108.099 9.224H108.315L108.711 9.548L108.927 9.728L109.035 10.088L109.107 10.448L108.639 11.996L106.983 16.064L105.723 18.656L104.931 19.34L104.535 19.412L104.175 19.448L103.527 19.052L103.491 18.836V18.62L102.987 19.34L102.699 20.888L102.303 22.184V22.148L103.419 21.788L103.779 21.752L104.031 21.932L104.283 22.148L104.211 22.436L104.031 23.156ZM101.727 9.764L97.3714 20.276L96.2554 22.616L95.9314 22.976L95.5354 23.012H95.2474L95.0674 22.76L94.8154 22.4L94.7794 22.004L95.3914 19.844L95.2474 19.808L95.3194 19.628L95.4634 19.16L96.2554 17.216L98.9554 10.664L99.6754 9.008L100.107 8.612L100.143 8.684L100.719 8.072L101.043 7.892L101.475 7.928L101.799 7.964L101.943 8.216L102.087 8.576L102.015 8.9L101.727 9.764ZM104.139 10.772L103.419 12.032L102.663 13.148L102.483 13.616L102.195 14.876L101.835 16.388L99.7474 21.428L98.6674 23.912L98.5234 24.164L98.1634 24.308L97.9474 24.38V24.164L98.0194 23.48L98.0554 23.336L97.9834 23.372L97.8034 23.444L97.8394 23.264L98.0194 22.58L99.1354 19.844L102.915 10.7L103.851 8.504L104.355 7.964L104.607 8.288L104.499 8.648H104.679L104.751 9.08L104.607 9.728L104.139 10.772ZM102.771 10.412L98.6314 20.42L97.6234 22.688L97.4074 23.048L97.1554 23.192L96.9754 23.264V23.084L97.0474 22.4L97.1554 22.184L97.0474 22.256L97.0834 22.04L97.1914 21.428L98.2354 18.944L101.655 10.628L102.231 9.296L102.519 8.72L103.023 8.252L102.987 8.432L103.311 8.612L103.275 8.828L102.771 10.412ZM94.3114 13.04L95.5714 10.592L96.1834 10.268L96.3994 10.196L96.3634 10.412L96.3274 10.628L96.8314 9.62L97.6954 8.864L98.0194 8.684L98.5954 8.648L98.8474 8.828L99.0994 9.26L98.8834 9.908L95.6074 17.792L95.0314 19.196L94.5994 19.808L94.0234 19.952L93.6274 19.448L93.5554 17.396L94.2034 15.452L94.3114 15.164L93.9154 15.128L93.9514 14.732L94.3114 13.04ZM111.771 14.084L110.583 17.108L109.539 18.836L108.891 19.304H108.387L108.063 19.34L107.775 19.088L107.487 18.836L107.451 18.62V18.044L107.811 16.964L107.775 16.856L107.667 16.568L107.811 16.1L108.351 14.768L110.079 10.628L110.439 9.836L110.655 9.476L110.907 9.368L111.303 9.332L111.375 9.656L111.447 9.944L111.339 10.34L110.979 11.312L110.943 11.42L110.979 11.456L111.519 11.816L111.843 12.32L111.771 14.084ZM113.031 15.524L112.455 17.432L111.987 18.296L111.231 18.62L110.871 18.296L110.907 18.008L111.015 17.36L111.843 15.344L112.203 14.696L112.527 14.624L112.851 13.832L113.319 13.184L113.355 13.544L112.923 14.696L113.031 15.524ZM113.463 17.144L113.427 16.604L113.679 16.172L113.859 15.992L114.183 16.388L114.111 16.568L113.895 17.108L113.463 17.144ZM108.099 23.048L107.091 25.352L106.335 26.432L105.219 26.9L104.787 26.936L104.499 26.72L104.175 26.504V26.288L104.211 25.712L104.571 24.776L104.499 24.272L105.255 22.22L106.047 20.672L106.515 20.348L106.947 20.636L106.875 21.068H107.343H107.631L107.955 21.32L108.207 21.5L108.279 21.824L108.315 22.22L108.099 23.048ZM110.151 22.94L109.539 24.452L109.143 25.136L108.747 25.604L108.459 25.568H108.063L108.027 25.172L107.991 24.776L108.207 24.056L108.963 22.4L109.215 21.968L109.683 21.536L109.755 21.392L110.223 21.068L110.079 21.464L110.403 21.5L110.439 21.824L110.475 22.22L110.151 22.94ZM110.691 23.228L111.483 21.464L111.987 21.32L111.951 21.536L112.023 21.464L112.347 21.104L112.959 21.284L112.995 21.5L113.031 22.004L112.851 22.436L112.095 23.516L111.735 23.876L111.303 23.984L111.015 23.768L111.051 23.552L111.087 23.408L110.691 23.516V23.228ZM124.517 16.208L123.545 18.404L123.221 18.908L122.969 18.98L122.501 19.124L122.357 18.836L122.177 18.476L122.213 18.296L122.321 17.72V17.684L122.249 17.648L121.853 17.612L121.745 17.18L121.637 16.892L121.745 16.424L122.249 15.056L124.265 10.16L124.913 8.576L125.417 7.64L125.993 7.1L126.389 7.136H126.677L126.785 7.424L126.929 7.784L126.857 8.072L126.677 8.576L126.929 8.612L127.145 8.648L127.181 8.828L127.289 9.332L127.109 9.908L126.101 11.96L125.525 12.356L125.273 12.14L125.201 12.104L125.129 12.248L124.121 14.768L124.409 14.84L124.697 15.236L124.661 15.524L124.517 16.208ZM123.869 9.944L121.061 16.676L120.341 17.792L119.981 18.044L119.621 17.864L119.369 17.756L119.297 17.252L119.585 16.208L119.333 15.884L119.117 15.668L119.153 15.236L119.585 13.832L121.205 9.98L122.213 7.82L122.717 7.244L123.041 7.28H123.365L123.401 7.568L123.473 7.928V7.964L123.689 8H124.085L124.193 8.432L124.265 8.756L124.193 9.008L123.869 9.944ZM128.585 9.332L129.233 7.82L129.449 7.46L129.413 7.64L129.233 8.108L128.873 9.008L128.585 9.332ZM121.061 9.692L119.729 12.896L118.973 14.552L118.469 15.128H118.181L117.893 15.884L117.641 16.316L117.749 16.028L118.073 15.128L117.641 14.984L117.317 14.552L117.281 14.156L117.353 13.004L118.289 10.592L119.729 8.18L120.413 7.748L120.809 7.712H121.205L121.277 7.892L121.493 8.324L121.385 8.684L121.061 9.692ZM130.817 12.428L129.881 13.472L129.521 13.58L129.161 13.652L128.873 13.472L128.513 13.256L128.441 12.716L128.549 11.96L129.197 10.376L129.629 9.728L130.025 9.548L130.169 9.476L130.709 8.396L131.033 8.072L130.997 8.288L130.853 8.756L130.673 9.224L130.565 9.476V9.512L131.141 9.8L131.393 10.34L131.357 10.7L130.817 12.428ZM128.405 10.808L127.721 12.392L127.469 12.788L126.785 13.148L126.353 12.86V12.536L126.317 12.104L126.533 11.384L127.289 9.728L127.577 9.332L128.045 9.116L128.369 9.224L128.657 9.584L128.621 9.872L128.405 10.808ZM132.005 11.06L132.365 10.412L132.725 10.736L132.689 10.916L132.473 11.456L131.861 11.6L132.005 11.06ZM116.705 12.572L117.173 11.132L117.101 10.988L117.389 10.844L117.317 11.024L117.605 10.7L117.749 10.988L117.569 11.42L117.101 12.572L116.813 12.932L116.705 12.572ZM132.797 12.5L133.265 12.392L133.301 12.572L133.409 13.076L132.797 13.472L132.689 13.184L132.509 12.86L132.797 12.5ZM125.309 18.26L124.805 19.196L124.589 19.52L124.157 19.7L123.833 19.664L123.509 19.304L123.581 18.728L123.905 17.756L124.445 16.424L124.841 15.776L125.165 15.524L125.417 15.344L125.741 15.524L125.993 15.668L126.065 15.452L126.569 14.552L126.461 14.804L126.173 15.524L125.993 15.704V16.172L125.309 18.26ZM128.945 16.928L127.145 21.356L125.489 25.316L124.877 26.324L124.589 26.612L124.193 26.756L123.869 26.828L123.581 26.72L123.185 26.576L123.041 26.072L122.969 25.82L123.041 25.424L123.545 23.948L124.121 22.904L125.057 21.68L125.525 19.376L126.425 17.036L127.037 15.884L127.649 15.416H127.685L127.793 15.2L128.081 14.768L128.153 15.236L128.081 15.38H128.153H128.441L128.657 15.596L128.945 15.884L128.981 16.172L128.945 16.928ZM132.113 18.872L130.349 23.228L129.125 25.856L128.261 26.612L127.901 26.756L127.361 26.612L127.181 26.54L127.109 26.36L127.001 25.856L127.109 25.352L127.793 23.624L129.773 18.872L130.421 17.648L130.529 17.36L130.925 16.496L131.141 16.208L131.501 16.064L131.465 16.352L131.321 16.784H131.429H131.825L132.077 17.108L132.293 17.468V17.756V18.26L132.113 18.872ZM129.989 17.576L127.577 23.408L126.893 24.812L126.785 24.92L126.713 25.064V24.992L126.569 25.1L126.461 24.74L126.569 24.092L127.037 22.94L129.341 17.396L129.773 16.424L130.061 16.064H130.457L130.385 16.388L129.989 17.576ZM134.525 22.328L133.661 23.912L133.373 24.272L132.905 24.524L132.725 24.596L132.401 24.308L132.365 24.38L131.645 24.776L131.285 24.632L130.997 24.488V24.272V23.732L131.177 23.192L131.717 21.86L133.157 18.404L133.949 17.18L134.273 16.928L134.561 17.036L134.921 17.216L135.029 17.756L134.993 18.404L134.453 19.916L134.669 19.88L134.921 20.312V20.672L134.525 22.328ZM118.361 23.084L118.001 23.624L117.569 23.804L117.245 23.696L116.921 23.336V23.012L117.245 21.86L117.749 21.356L117.389 21.284L117.101 20.816L117.425 20.276L117.749 20.456L118.037 20.564L117.965 20.78L117.821 21.14L117.749 21.32L117.785 21.284H118.289L118.469 21.248L118.577 21.428L118.757 21.896L118.685 22.184L118.361 23.084ZM121.061 24.632L120.737 25.208L120.413 25.496L120.161 25.676L119.909 25.604L119.549 25.496L119.513 25.28L119.441 24.776L119.621 24.236L119.729 23.984L119.369 24.02L119.297 23.84L119.045 23.372L119.117 22.904L119.729 21.212L120.197 20.6L120.593 20.456L120.881 20.384L121.133 20.636L121.349 20.852L121.277 21.428L121.241 21.536L121.493 21.68L121.781 21.824L121.817 22.364L121.673 23.12L121.061 24.632ZM123.437 21.932L123.473 21.716L123.761 20.996L123.905 20.744L123.833 21.032L123.437 21.932ZM122.177 25.712L121.781 26.252L121.277 26.396L121.025 26.36L120.737 25.892L120.809 25.604L120.917 24.992L121.709 23.048L122.141 22.4L122.645 22.256L122.861 22.184L122.933 22.4L123.185 22.832L123.077 23.408L122.177 25.712Z" fill="white"/>
</svg>
